<svg xmlns="http://www.w3.org/2000/svg" xmlns:xlink="http://www.w3.org/1999/xlink" fill="none" version="1.1" width="18" height="18" viewBox="0 0 18 18"><g><path d="M9,0C4.03393,0,0,4.03393,0,9C0,13.9661,4.03393,18,9,18C13.9661,18,18,13.9661,18,9C18,4.03393,13.9661,0,9,0ZM9,16.7143C4.74107,16.7143,1.28571,13.2589,1.28571,9C1.28571,4.74107,4.74107,1.28571,9,1.28571C13.2589,1.28571,16.7143,4.74107,16.7143,9C16.7143,13.2589,13.2589,16.7143,9,16.7143ZM9.64286,8.80714L13.4839,11.025L12.8411,12.1339L8.53393,9.64286L8.35714,9.64286L8.35714,3.85714L9.64286,3.85714L9.64286,8.80714Z" fill="#333333" fill-opacity="1"/></g></svg>
