<svg xmlns="http://www.w3.org/2000/svg" xmlns:xlink="http://www.w3.org/1999/xlink" fill="none" version="1.1" width="28.767333984375" height="22.4166259765625" viewBox="0 0 28.767333984375 22.4166259765625"><defs><linearGradient x1="1" y1="0.5" x2="0" y2="0.5" id="master_svg0_62_2456"><stop offset="8.571428805589676%" stop-color="#B2D4FF" stop-opacity="1"/><stop offset="52.73972749710083%" stop-color="#DBEBFF" stop-opacity="1"/><stop offset="98.57142567634583%" stop-color="#BADFFF" stop-opacity="1"/></linearGradient><linearGradient x1="1" y1="0.5" x2="0" y2="0.5" id="master_svg1_62_2094"><stop offset="0%" stop-color="#7BACFF" stop-opacity="1"/><stop offset="58.90411138534546%" stop-color="#E2EDFF" stop-opacity="1"/><stop offset="82.14285969734192%" stop-color="#E4ECF4" stop-opacity="1"/></linearGradient></defs><g style="mix-blend-mode:passthrough"><g style="mix-blend-mode:passthrough"><g style="mix-blend-mode:passthrough"><path d="M28.76565054473877,6.010450788421631C28.81235054473877,5.164668788421631,27.85215054473877,4.647543788421631,27.17165054473877,5.152011788421631L19.65145054473877,10.72721078842163L14.38315054473877,8.311680788421631L14.38315054473877,8.31217078842163L8.97649054473877,10.727690788421631L1.6014705447387696,5.177001788421631C0.9219615447387696,4.665583788421631,-0.04523165526123047,5.181941788421631,0.0016411747387695312,6.031110788421631L0.7787945447387695,20.11023078842163C0.8373125447387695,21.17043078842163,1.7140005447387696,22.000030788421633,2.7757405447387695,22.000030788421633L14.38315054473877,22.000130788421632L14.38315054473877,21.99963078842163L25.99045054473877,21.99953078842163C27.05225054473877,21.99953078842163,27.92895054473877,21.16993078842163,27.98745054473877,20.109830788421633L28.76565054473877,6.010450788421631Z" fill-rule="evenodd" fill="url(#master_svg0_62_2456)" fill-opacity="1"/></g><g style="mix-blend-mode:passthrough"><path d="M0.8830934166908264,19.997C0.8830934166908264,21.1015,1.8042984166908265,21.997,2.9088434166908264,21.997Q9.107123416690827,21.9972,14.202693416690826,21.9972Q19.342693416690825,21.9972,25.876893416690827,21.997C26.981493416690828,21.997,27.883093416690826,21.1015,27.883093416690826,19.997L27.883093416690826,18.6927C27.883093416690826,18.5541,27.838093416690825,18.4193,27.754993416690827,18.3085L15.658593416690826,2.1902C14.845493416690827,1.10681,13.213293416690826,1.12802,12.428693416690827,2.23217L1.0014024166908264,18.3128C0.9244416166908265,18.4211,0.8830934166908264,18.5506,0.8830934166908264,18.6835L0.8830934166908264,19.997Z" fill="url(#master_svg1_62_2094)" fill-opacity="1"/></g></g><g style="mix-blend-mode:passthrough"><path d="M11.456298953125,19.416582107543945L17.139236953125,19.416582107543945L17.139236953125,17.985582107543948L13.329346953125,17.985582107543948L16.537676953125,14.029862107543945Q17.139236953125,13.273352107543946,17.139236953125,12.307212107543945Q17.125566953125002,11.094972107543946,16.309816953125,10.306552107543945Q15.512286953124999,9.513592107543946,14.227136953125001,9.499912107543945Q13.078696953125,9.513592107543946,12.290286953125,10.297442107543946Q11.510985953125,11.104082107543945,11.456298953125,12.339112107543945L12.878176953125,12.339112107543945Q12.955646953125001,11.669182107543946,13.356686953125,11.300042107543945Q13.748616953125,10.930902107543945,14.336506953125,10.930902107543945Q14.997316953125,10.944582107543944,15.361896953125001,11.354732107543946Q15.708246953125,11.764892107543945,15.708246953125,12.311762107543945Q15.708246953125,12.521402107543945,15.653566953125,12.753822107543947Q15.571536953125001,13.004472107543945,15.348226953125,13.291582107543945L11.456298953125,18.067582107543945L11.456298953125,19.416582107543945Z" fill="#667090" fill-opacity="1"/></g></g></svg>