<svg xmlns="http://www.w3.org/2000/svg" xmlns:xlink="http://www.w3.org/1999/xlink" fill="none" version="1.1" width="88" height="24" viewBox="0 0 88 24"><g style="mix-blend-mode:passthrough"><path d="M4.41889,4.36854L4.87023,1.15416L4.06202,0.204945L10.4122,0.204945L9.83492,4.36854L11.5458,4.36854L11.126,7.32405L9.44656,7.32405L8.93225,11.1856L10.3807,10.7542L9.8979,14.1735L8.44943,14.6049L7.48378,21.7888Q7.34733,22.7488,6.62309,23.3636Q5.89886,23.9676,4.99618,23.9676L0,23.9676L2.16221,20.9798L2.80248,16.2769L0.997137,16.8054L1.47996,13.3106L3.25382,12.7712L3.99905,7.32405L2.35114,7.32405L2.77099,4.36854L4.41889,4.36854ZM13.9914,10.1933L14.5057,6.33169L11.8292,6.33169L12.2805,3.19281L14.9256,3.19281L15.188,1.48854L14.3483,0.172586L20.3731,0.172586L17.0878,24L12.0916,24L12.7004,19.556L10.0239,19.556L10.4752,16.4063L13.1202,16.4063L13.5716,13.3429L10.9265,13.3429L11.3464,10.1933L13.9914,10.1933ZM21.7271,0.140226L26.7338,0.140226L26.3139,3.14966L28.8855,3.14966L28.4342,6.29933L25.8626,6.29933L25.3378,10.1933L27.9828,10.1933L27.563,13.3429L24.9284,13.3429L24.4771,16.3739L27.1851,16.3739L26.7338,19.5236L24.0573,19.5236L23.438,24L18.4418,24L21.7271,0.140226ZM57.3511,7.99281L56.8998,11.2719L52.4494,11.2719L51.0324,21.7133Q50.9065,22.6733,50.1613,23.2881Q49.416,23.9029,48.5134,23.9029L42.1317,23.9029L45.0286,20.818L46.3197,11.2719L40.6517,11.2719L41.1031,7.99281L57.3511,7.99281ZM39.1298,8.99595L37.0725,23.9353L31.2366,23.9353L33.1365,10.0099L30.6174,10.4737L31.1317,6.78472L39.6441,5.24225L39.1298,8.99595ZM57.3826,0.916855L56.9313,4.1636L42.5515,4.1636L43.0029,0.916855L57.3826,0.916855ZM39.8435,3.99101L31.2996,5.55506L31.8139,1.82292L40.3578,0.258876L39.8435,3.99101ZM81.0725,21.5407L81.4924,18.391L76.5277,18.391L74.166,23.698L69.6842,23.698L73.3998,15.2198L70.2405,15.2198L70.6603,12.1025L76.3912,12.1025L76.6536,10.3443L81.7443,10.3443L81.4924,12.1025L87.2338,12.1025L86.8139,15.2198L77.8817,15.2198L77.5878,15.8778L86.1947,15.8778L85.3235,22.1771Q85.2605,22.8351,84.7462,23.2665Q84.2319,23.698,83.6231,23.698L79.1097,23.698L81.0725,21.5407ZM64.0162,7.10831L61.4342,7.10831L61.8855,4.03416L64.4676,4.03416L64.8874,0.960001L64.2366,0L69.1069,0L68.5611,4.03416L71.1116,4.03416L70.6603,7.10831L68.1097,7.10831L65.8216,23.698L61.7281,23.698L64.0162,7.10831ZM78.8473,6.87101L81.0095,6.87101L81.9752,5.17753L85.9742,5.17753L85.0401,6.87101L88,6.87101L87.4227,11.4337L83.3922,11.4337L83.5916,9.84809L75.0372,9.84809L74.8483,11.4337L70.8807,11.4337L71.458,6.87101L74.8168,6.87101L74.3969,5.17753L78.4275,5.17753L78.8473,6.87101ZM77.9447,1.79056L78.0076,1.29438L76.979,0.0323595L82.9094,0.0323595L82.6469,1.79056L87.7796,1.79056L87.4227,4.36854L72.7176,4.36854L73.0744,1.79056L77.9447,1.79056ZM59.083,22.8027L61.5916,7.88494L63.5019,7.88494L61.0143,22.8027L59.083,22.8027ZM67.1441,20.9151L68.4036,7.88494L70.3034,7.88494L69.0754,20.9151L67.1441,20.9151Z" fill="#FFFFFF" fill-opacity="1"/></g></svg>