<svg xmlns="http://www.w3.org/2000/svg" xmlns:xlink="http://www.w3.org/1999/xlink" fill="none" version="1.1" width="96" height="26" viewBox="0 0 96 26"><g style="mix-blend-mode:passthrough"><path d="M3.58238,10.1961L3.58238,4.42096L5.90503,4.42096C8.20405,4.42096,9.45592,5.11397,9.45592,7.16115C9.45592,9.17647,8.20405,10.1961,5.90503,10.1961L3.58238,10.1961ZM9.74723,19.8824L13.739,19.8824L9.55827,12.4982C11.6132,11.6936,12.9674,9.99694,12.9674,7.16115C12.9674,2.87561,9.99131,1.52941,6.21996,1.52941L0,1.52941L0,19.8824L3.58238,19.8824L3.58238,13.0637L6.07037,13.0637L9.74723,19.8824ZM19.6519,20.3922C21.2266,20.3922,22.5808,19.6354,23.7382,18.5839L23.8642,18.5839L24.1004,19.8824L27.0057,19.8824L27.0057,11.7175C27.0057,7.69485,25.242,5.60784,21.8092,5.60784C19.6756,5.60784,17.7387,6.44424,16.1719,7.42402L17.4238,9.84559C18.6835,9.07292,19.896,8.49939,21.1557,8.49939C22.8249,8.49939,23.3997,9.55086,23.4469,10.921C18.0064,11.5184,15.6601,13.0956,15.6601,16.0668C15.6601,18.6556,17.2348,20.3922,19.6519,20.3922ZM20.8408,17.5803C19.8015,17.5803,19.0457,17.0944,19.0457,15.9712C19.0457,14.6648,20.1401,13.7169,23.4469,13.3107L23.4469,16.1783C22.6044,17.0705,21.8565,17.5803,20.8408,17.5803ZM30.4463,19.8824L34.0051,19.8824L34.0051,10.2678C34.9971,9.24816,35.7215,8.69853,36.808,8.69853C38.1386,8.69853,38.7212,9.4473,38.7212,11.6219L38.7212,19.8824L42.28,19.8824L42.28,11.1679C42.28,7.67096,41.0203,5.60784,38.0914,5.60784C36.2569,5.60784,34.8712,6.58762,33.6901,7.76654L33.6193,7.76654L33.3516,6.11765L30.4463,6.11765L30.4463,19.8824ZM46.0671,19.8824L49.5786,19.8824L49.5786,16.3934L51.4603,14.155L54.7514,19.8824L58.6251,19.8824L53.5468,11.7972L58.1842,6.11765L54.2948,6.11765L49.6731,12.0202L49.5786,12.0202L49.5786,0.29473L46.0671,0.29473L46.0671,19.8824ZM60.6801,19.8824L64.2388,19.8824L64.2388,6.11765L60.6801,6.11765L60.6801,19.8824ZM62.4752,3.91912C63.6798,3.91912,64.5301,3.16238,64.5301,1.95956C64.5301,0.788603,63.6798,0,62.4752,0C61.2154,0,60.4124,0.788603,60.4124,1.95956C60.4124,3.16238,61.2154,3.91912,62.4752,3.91912ZM68.2385,19.8824L71.7973,19.8824L71.7973,10.2678C72.7893,9.24816,73.5136,8.69853,74.6002,8.69853C75.9308,8.69853,76.5134,9.4473,76.5134,11.6219L76.5134,19.8824L80.0722,19.8824L80.0722,11.1679C80.0722,7.67096,78.8124,5.60784,75.8835,5.60784C74.049,5.60784,72.6633,6.58762,71.4823,7.76654L71.4115,7.76654L71.1438,6.11765L68.2385,6.11765L68.2385,19.8824ZM88.6227,26C93.1498,26,96,23.8971,96,21.1887C96,18.807,94.2127,17.7794,90.9453,17.7794L88.6227,17.7794C87.0558,17.7794,86.4968,17.3891,86.4968,16.6801C86.4968,16.0987,86.7409,15.8039,87.0795,15.4933C87.6857,15.7083,88.3156,15.8039,88.8195,15.8039C91.7484,15.8039,94.071,14.2665,94.071,10.9926C94.071,10.0766,93.8033,9.26409,93.4648,8.76225L95.7638,8.76225L95.7638,6.11765L90.8981,6.11765C90.3233,5.75919,89.6147,5.60784,88.8195,5.60784C85.9614,5.60784,83.379,7.35233,83.379,10.7935C83.379,12.5619,84.2451,13.9479,85.1899,14.633L85.1899,14.7286C84.371,15.318,83.6939,16.2659,83.6939,17.2696C83.6939,18.4167,84.1978,19.1256,84.9222,19.5876L84.9222,19.7071C83.6467,20.424,82.9932,21.3799,82.9932,22.5031C82.9932,24.9007,85.4339,26,88.6227,26ZM88.8195,13.5815C87.6621,13.5815,86.7173,12.5858,86.7173,10.7935C86.7173,9.04902,87.6306,8.08517,88.8195,8.08517C90.032,8.08517,90.9689,9.04902,90.9689,10.7935C90.9689,12.5858,90.032,13.5815,88.8195,13.5815ZM89.158,23.7059C87.1976,23.7059,85.9378,23.0766,85.9378,21.9773C85.9378,21.4038,86.2055,20.8781,86.8118,20.3922C87.3235,20.5913,87.8747,20.6391,88.6778,20.6391L90.3469,20.6391C91.7956,20.6391,92.5908,20.894,92.5908,21.8339C92.5908,22.8137,91.213,23.7059,89.158,23.7059Z" fill="#FFFFFF" fill-opacity="1"/></g></svg>