<svg xmlns="http://www.w3.org/2000/svg" xmlns:xlink="http://www.w3.org/1999/xlink" fill="none" version="1.1" width="28.53466796875" height="22.25" viewBox="0 0 28.53466796875 22.25"><defs><linearGradient x1="0.5" y1="0" x2="0.5" y2="1" id="master_svg0_1_00376"><stop offset="4.285714402794838%" stop-color="#FFD43F" stop-opacity="1"/><stop offset="100%" stop-color="#E8B200" stop-opacity="1"/></linearGradient><linearGradient x1="0" y1="0.5" x2="1" y2="0.5" id="master_svg1_62_1440"><stop offset="5.000000074505806%" stop-color="#FFE11D" stop-opacity="0.9399999976158142"/><stop offset="47.85714149475098%" stop-color="#FFF35B" stop-opacity="1"/><stop offset="85.61643958091736%" stop-color="#FFA55B" stop-opacity="1"/></linearGradient></defs><g style="mix-blend-mode:passthrough"><g style="mix-blend-mode:passthrough"><g style="mix-blend-mode:passthrough"><path d="M28.531357902526857,8.137765592651366C28.624757902526856,6.446207592651367,26.704257902526855,5.411960592651367,25.343357902526854,6.4208995926513674L19.534557902526856,10.727315592651367L14.266257902526856,8.311785592651367L8.859597902526856,10.727315592651367L3.2029379025268554,6.469905592651367C1.8439279025268556,5.447063592651367,-0.09046259747314453,6.479780592651367,0.0032828625268554686,8.178105592651367L0.6619039025268555,20.109935592651368C0.7204209025268554,21.170035592651367,1.5971079025268555,21.99973559265137,2.6588479025268557,21.99973559265137L14.266257902526856,21.999835592651365L25.873557902526855,21.99973559265137C26.935357902526857,21.99973559265137,27.812057902526856,21.170035592651367,27.870557902526855,20.109935592651368L28.531357902526857,8.137765592651366Z" fill-rule="evenodd" fill="url(#master_svg0_1_00376)" fill-opacity="1"/></g><g style="mix-blend-mode:passthrough"><path d="M0.7662091851234436,19.997C0.7662091851234436,21.1015,1.6874141851234437,21.997,2.7919591851234435,21.997Q8.990239185123444,21.9972,14.085809185123443,21.9972Q19.225809185123442,21.9972,25.760009185123444,21.997C26.864609185123445,21.997,27.766209185123444,21.1015,27.766209185123444,19.997L27.766209185123444,18.6927C27.766209185123444,18.5541,27.721209185123442,18.4193,27.638109185123444,18.3085L15.541709185123443,2.1902C14.728609185123444,1.10681,13.096409185123443,1.12802,12.311809185123444,2.23217L0.8845181851234436,18.3128C0.8075573851234437,18.4211,0.7662091851234436,18.5506,0.7662091851234436,18.6835L0.7662091851234436,19.997Z" fill="url(#master_svg1_62_1440)" fill-opacity="1"/></g></g><g style="mix-blend-mode:passthrough"><path d="M15.49098255859375,19.25L15.49098255859375,10.89193L13.672632558593751,10.89193L11.62640355859375,12.6556L11.62640355859375,14.61979L13.672632558593751,12.85156L13.672632558593751,19.25L15.49098255859375,19.25Z" fill="#CD7400" fill-opacity="1"/></g></g></svg>