<svg xmlns="http://www.w3.org/2000/svg" xmlns:xlink="http://www.w3.org/1999/xlink" fill="none" version="1.1" width="28.53466796875" height="22.25" viewBox="0 0 28.53466796875 22.25"><defs><linearGradient x1="1" y1="0.5" x2="0" y2="0.5" id="master_svg0_62_3748"><stop offset="22.142857313156128%" stop-color="#FFA370" stop-opacity="1"/><stop offset="94.28571462631226%" stop-color="#FF8745" stop-opacity="1"/></linearGradient><linearGradient x1="1" y1="0.5" x2="0" y2="0.5" id="master_svg1_62_3114"><stop offset="27.142858505249023%" stop-color="#FF915E" stop-opacity="1"/><stop offset="59.58904027938843%" stop-color="#FFC2A6" stop-opacity="1"/><stop offset="92.14285612106323%" stop-color="#FF9F6B" stop-opacity="1"/></linearGradient></defs><g style="mix-blend-mode:passthrough"><g style="mix-blend-mode:passthrough"><g style="mix-blend-mode:passthrough"><path d="M28.531357902526857,8.137765592651366C28.624757902526856,6.446207592651367,26.704257902526855,5.411960592651367,25.343357902526854,6.4208995926513674L19.534557902526856,10.727315592651367L14.266257902526856,8.311785592651367L8.859597902526856,10.727315592651367L3.2029379025268554,6.469905592651367C1.8439279025268556,5.447063592651367,-0.09046259747314453,6.479780592651367,0.0032828625268554686,8.178105592651367L0.6619039025268555,20.109935592651368C0.7204209025268554,21.170035592651367,1.5971079025268555,21.99973559265137,2.6588479025268557,21.99973559265137L14.266257902526856,21.999835592651365L25.873557902526855,21.99973559265137C26.935357902526857,21.99973559265137,27.812057902526856,21.170035592651367,27.870557902526855,20.109935592651368L28.531357902526857,8.137765592651366Z" fill-rule="evenodd" fill="url(#master_svg0_62_3748)" fill-opacity="1"/></g><g style="mix-blend-mode:passthrough"><path d="M0.7662091851234436,21.3569C0.7662091851234436,21.7104,1.0485101851234435,21.9969,1.4019631851234435,21.997Q8.424479185123444,21.9972,14.085809185123443,21.9972Q19.758309185123444,21.9972,27.128809185123444,21.9969C27.482309185123444,21.9969,27.766209185123444,21.7104,27.766209185123444,21.3569L27.766209185123444,18.6927C27.766209185123444,18.5541,27.721209185123442,18.4193,27.638109185123444,18.3085L15.541709185123443,2.1902C14.728609185123444,1.10681,13.096409185123443,1.12802,12.311809185123444,2.23217L0.8845181851234436,18.3128C0.8075573851234437,18.4211,0.7662091851234436,18.5506,0.7662091851234436,18.6835L0.7662091851234436,21.3569Z" fill="url(#master_svg1_62_3114)" fill-opacity="1"/></g></g><g style="mix-blend-mode:passthrough"><path d="M13.34906255859375,14.55599L13.95062255859375,14.55599Q14.61598255859375,14.55599,15.04437255859375,14.9707Q15.48187255859375,15.40365,15.495542558593751,16.1875Q15.48187255859375,16.957700000000003,15.04437255859375,17.3724Q14.61598255859375,17.819000000000003,13.98708255859375,17.819000000000003Q13.39919255859375,17.819000000000003,13.04372255859375,17.4863Q12.69281255859375,17.1719,12.50140255859375,16.6569L11.07497155859375,16.6569Q11.30739355859375,17.9193,12.09580255859375,18.584600000000002Q12.87966255859375,19.25,13.90049255859375,19.25Q15.21755255859375,19.2363,16.060652558593752,18.4251Q16.91286255859375,17.636699999999998,16.92653255859375,16.265Q16.92653255859375,15.64974,16.65765255859375,15.08919Q16.37966255859375,14.52409,15.75075255859375,14.12305Q16.36598255859375,13.71745,16.60296255859375,13.19336Q16.80804255859375,12.673829999999999,16.80804255859375,12.10872Q16.79437255859375,11.0013,16.02874255859375,10.18099Q15.23122255859375,9.347010000000001,13.86859255859375,9.33333Q12.797632558593751,9.347010000000001,12.02289255859375,10.07617Q11.23903355859375,10.819009999999999,11.12965855859375,11.89453L12.56065255859375,11.89453Q12.697362558593749,11.315760000000001,13.093852558593749,11.04232Q13.46755255859375,10.76432,13.92783255859375,10.76432Q14.56130255859375,10.777999999999999,14.96690255859375,11.142579999999999Q15.36794255859375,11.52083,15.381612558593751,12.11328Q15.381612558593751,12.69661,14.97601255859375,13.065760000000001Q14.57497255859375,13.444009999999999,13.84124255859375,13.444009999999999L13.34906255859375,13.444009999999999L13.34906255859375,14.55599Z" fill="#B03E00" fill-opacity="1"/></g></g></svg>