<svg xmlns="http://www.w3.org/2000/svg" xmlns:xlink="http://www.w3.org/1999/xlink" fill="none" version="1.1" width="120" height="120" viewBox="0 0 120 120"><defs><linearGradient x1="0.5" y1="0" x2="0.5" y2="1" id="master_svg0_1_0004"><stop offset="0%" stop-color="#FFEBBC" stop-opacity="1"/><stop offset="98.57142567634583%" stop-color="#FFEBBC" stop-opacity="0.4000000059604645"/></linearGradient></defs><g style="mix-blend-mode:passthrough"><g style="mix-blend-mode:passthrough"></g><g style="mix-blend-mode:passthrough"><path d="M55.9999734375,32.744631640625L55.9999734375,101.304931640625C55.9999734375,101.372731640625,56.0016734375,101.440131640625,56.0049734375,101.507031640625L38.8510734375,101.507031640625C36.6419734375,101.507031640625,34.8510734375,103.297931640625,34.8510734375,105.507031640625C34.8510734375,107.716231640625,36.6419734375,109.507031640625,38.8510734375,109.507031640625L80.6381734375,109.507031640625C82.8472734375,109.507031640625,84.6381734375,107.716231640625,84.6381734375,105.507031640625C84.6381734375,103.297931640625,82.8472734375,101.507031640625,80.6381734375,101.507031640625L63.9949734375,101.507031640625C63.9982734375,101.440131640625,63.9999734375,101.372731640625,63.9999734375,101.304931640625L63.9999734375,32.744631640625L89.6266734375,32.744631640625L72.8882734375,59.115731640625L70.8136734375,59.115731640625Q70.7631734375,59.858131640625,70.7631734375,60.602131640625Q70.7631734375,61.139631640625,70.7895734375,61.676331640625Q70.8159734375,62.213131640625,70.8685734375,62.747931640625Q70.9212734375,63.282831640625,71.0001734375,63.814431640625Q71.0789734375,64.346031640625,71.1837734375,64.873031640625Q71.2886734375,65.400131640625,71.4192734375,65.921531640625Q71.5498734375,66.442831640625,71.7058734375,66.95703164062499Q71.8618734375,67.47133164062501,72.0428734375,67.97733164062501Q72.2239734375,68.48333164062501,72.4295734375,68.97983164062501Q72.6352734375,69.476331640625,72.8650734375,69.96223164062499Q73.0947734375,70.448031640625,73.3481734375,70.92193164062499Q73.6014734375,71.39593164062501,73.8777734375,71.85693164062499Q74.1540734375,72.317831640625,74.4526734375,72.764731640625Q74.7511734375,73.211531640625,75.0713734375,73.643231640625Q75.3914734375,74.074831640625,75.7324734375,74.490331640625Q76.0733734375,74.90573164062499,76.4342734375,75.303931640625Q76.7951734375,75.702131640625,77.1751734375,76.082131640625Q77.5551734375,76.462131640625,77.9533734375,76.823031640625Q78.3515734375,77.18393164062499,78.7670734375,77.524931640625Q79.1824734375,77.865831640625,79.6140734375,78.185931640625Q80.0457734375,78.506131640625,80.4925734375,78.804631640625Q80.9394734375,79.103231640625,81.4004734375,79.379531640625Q81.8613734375,79.655831640625,82.3353734375,79.909131640625Q82.8092734375,80.162531640625,83.2951734375,80.392231640625Q83.7809734375,80.622031640625,84.2774734375,80.827731640625Q84.7739734375,81.033331640625,85.2799734375,81.214431640625Q85.7859734375,81.395431640625,86.3002734375,81.551431640625Q86.8144734375,81.707431640625,87.3358734375,81.838031640625Q87.8571734375,81.968631640625,88.3842734375,82.073531640625Q88.9113734375,82.178331640625,89.4429734375,82.257231640625Q89.9745734375,82.336031640625,90.5093734375,82.388731640625Q91.0441734375,82.441431640625,91.5809734375,82.467731640625Q92.1177734375,82.494131640625,92.6551734375,82.494131640625Q93.1925734375,82.494131640625,93.7293734375,82.467731640625Q94.2660734375,82.441431640625,94.8009734375,82.388731640625Q95.3357734375,82.336031640625,95.8673734375,82.257231640625Q96.3989734375,82.178331640625,96.9260734375,82.073431640625Q97.4531734375,81.968631640625,97.9744734375,81.838031640625Q98.4957734375,81.707431640625,99.0100734375,81.551431640625Q99.5242734375,81.395431640625,100.0302734375,81.214431640625Q100.5362734375,81.033331640625,101.0328734375,80.827731640625Q101.5293734375,80.622031640625,102.0151734375,80.392231640625Q102.5009734375,80.162531640625,102.9749734375,79.909131640625Q103.4488734375,79.655831640625,103.9098734375,79.379531640625Q104.3707734375,79.103231640625,104.8176734375,78.804631640625Q105.2644734375,78.506131640625,105.6961734375,78.185931640625Q106.1278734375,77.865831640625,106.5432734375,77.524931640625Q106.9582734375,77.18393164062499,107.3572734375,76.823031640625Q107.7552734375,76.462131640625,108.1352734375,76.082131640625Q108.5152734375,75.702131640625,108.8762734375,75.303931640625Q109.2372734375,74.90573164062499,109.5782734375,74.490331640625Q109.9192734375,74.074831640625,110.2392734375,73.643231640625Q110.5592734375,73.211531640625,110.8572734375,72.764731640625Q111.1562734375,72.317831640625,111.4322734375,71.85693164062499Q111.7092734375,71.39593164062501,111.9622734375,70.92193164062499Q112.2152734375,70.448031640625,112.4452734375,69.96223164062499Q112.6752734375,69.476331640625,112.8802734375,68.97983164062501Q113.0862734375,68.48333164062501,113.2672734375,67.97733164062501Q113.4482734375,67.47133164062501,113.6042734375,66.95703164062499Q113.7602734375,66.442831640625,113.8912734375,65.921531640625Q114.0212734375,65.400131640625,114.1262734375,64.873031640625Q114.2312734375,64.346031640625,114.3102734375,63.814431640625Q114.3892734375,63.282831640625,114.4412734375,62.747931640625Q114.4942734375,62.213131640625,114.5202734375,61.676331640625Q114.5472734375,61.139631640625,114.5472734375,60.602131640625Q114.5472734375,59.858131640625,114.4962734375,59.115731640625L111.7722734375,59.115731640625L95.0334734375,32.743231640625Q95.1292734375,32.739531640625,95.2243734375,32.726731640625005Q95.3193734375,32.713931640625,95.4126734375,32.692131640625Q95.5060734375,32.670331640625,95.5968734375,32.639631640625Q95.6877734375,32.609031640625,95.7752734375,32.569831640625Q95.8627734375,32.530631640625,95.9460734375,32.483231640625Q96.0293734375,32.435831640625,96.1078734375,32.380731640625Q96.1862734375,32.325531640625,96.2590734375,32.263131640625005Q96.3318734375,32.200831640625,96.3983734375,32.131731640625Q96.4648734375,32.062631640625,96.5244734375,31.987531640625Q96.5839734375,31.912431640625,96.6361734375,31.831931640625Q96.6882734375,31.751531640625,96.7324734375,31.666431640625Q96.7765734375,31.581331640625,96.8124734375,31.492431640625Q96.8482734375,31.403531640625,96.8754734375,31.311531640625Q96.9026734375,31.219631640625,96.9208734375,31.125531640625Q96.9391734375,31.031331640625,96.9483734375,30.935931640625Q96.9574734375,30.840531640625,96.9574734375,30.744631640625Q96.9574734375,30.646331640625,96.9478734375,30.548631640625Q96.9382734375,30.450831640625,96.9190734375,30.354431640625Q96.8998734375,30.258131640625,96.8713734375,30.164031640625Q96.8428734375,30.070031640625,96.8052734375,29.979231640625Q96.7676734375,29.888531640625,96.7213734375,29.801831640625Q96.6750734375,29.715131640625,96.6204734375,29.633531640625Q96.5658734375,29.551831640625,96.5035734375,29.475831640625Q96.4411734375,29.399931640625,96.3717734375,29.330431640625Q96.3022734375,29.260931640625,96.2262734375,29.198631640625003Q96.1503734375,29.136231640625,96.0686734375,29.081731640625Q95.9869734375,29.027131640625,95.9002734375,28.980831640625Q95.8136734375,28.934431640625,95.7228734375,28.896831640625003Q95.6320734375,28.859231640624998,95.5380734375,28.830731640625Q95.4440734375,28.802231640625,95.3476734375,28.783031640624998Q95.2513734375,28.763931640625,95.1535734375,28.754231640625Q95.0557734375,28.744631640625002,94.9574734375,28.744631640625002L92.4955734375,28.744631640625002L92.3305734375,28.484631640625L92.1655734375,28.744631640625002L63.9999734375,28.744631640625002L63.9999734375,17.304931640625C63.9999734375,15.095791640625,62.2091734375,13.304931640625,59.9999734375,13.304931640625C57.7908734375,13.304931640625,55.9999734375,15.095791640625,55.9999734375,17.304931640625L55.9999734375,28.744631640625002L27.8876734375,28.744631640625002L27.7226734375,28.484631640625L27.5576734375,28.744631640625002L25.5107734375,28.744631640625002Q25.4124734375,28.744631640625002,25.3146734375,28.754231640625Q25.2169734375,28.763931640625,25.1205734375,28.783031640624998Q25.0241734375,28.802231640625,24.9301734375,28.830731640625Q24.8361734375,28.859231640624998,24.7453734375,28.896831640625003Q24.6545734375,28.934431640625,24.5679734375,28.980831640625Q24.4812734375,29.027131640625,24.3995734375,29.081731640625Q24.3178734375,29.136231640625,24.2419734375,29.198631640625003Q24.1659734375,29.260931640625,24.0965734375,29.330431640625Q24.0270734375,29.399931640625,23.9646734375,29.475831640625Q23.9023734375,29.551831640625,23.8477734375,29.633531640625Q23.7931734375,29.715131640625,23.7468734375,29.801831640625Q23.7005734375,29.888531640625,23.6629734375,29.979231640625Q23.6253734375,30.070031640625,23.5968734375,30.164031640625Q23.5683734375,30.258131640625,23.5491734375,30.354431640625Q23.5299734375,30.450831640625,23.5203734375,30.548631640625Q23.5107734375,30.646331640625,23.5107734375,30.744631640625Q23.5107734375,30.912431640625,23.5386734375,31.077931640625Q23.5666734375,31.243431640625,23.6218734375,31.402031640625Q23.6770734375,31.560531640625,23.7578734375,31.707631640625Q23.8386734375,31.854731640625,23.9428734375,31.986331640625Q24.0470734375,32.117931640625,24.1717734375,32.230231640625Q24.2964734375,32.342631640625,24.4380734375,32.432631640625004Q24.5797734375,32.522731640625,24.7344734375,32.587831640625Q24.8891734375,32.652931640625,25.0525734375,32.691431640625L8.2803834375,59.115731640625L6.2057962375,59.115731640625Q6.1552734375,59.858131640625,6.1552734375,60.602131640625Q6.1552734375,61.139631640625,6.1816432375,61.676331640625Q6.2080131375,62.213131640625,6.2606894375,62.747931640625Q6.3133654375,63.282831640625,6.3922204375,63.814431640625Q6.4710764375,64.346031640625,6.5759214375,64.873031640625Q6.6807664375,65.400131640625,6.8113484374999995,65.921531640625Q6.9419294375,66.442831640625,7.0979344375,66.95703164062499Q7.2539334375,67.47133164062501,7.4349934375,67.97733164062501Q7.6160434375,68.48333164062501,7.8217034375,68.97983164062501Q8.0273634375,69.476331640625,8.2571334375,69.96223164062499Q8.4869134375,70.448031640625,8.7402534375,70.92193164062499Q8.9935834375,71.39593164062501,9.2698734375,71.85693164062499Q9.5461634375,72.317831640625,9.8447334375,72.764731640625Q10.1433034375,73.211531640625,10.4634434375,73.643231640625Q10.783583437499999,74.074831640625,11.124523437499999,74.490331640625Q11.465453437499999,74.90573164062499,11.8263634375,75.303931640625Q12.1872734375,75.702131640625,12.5672834375,76.082131640625Q12.9472934375,76.462131640625,13.3454934375,76.823031640625Q13.7436934375,77.18393164062499,14.1591234375,77.524931640625Q14.5745534375,77.865831640625,15.0062134375,78.185931640625Q15.4378634375,78.506131640625,15.8847134375,78.804631640625Q16.331573437499998,79.103231640625,16.7924734375,79.379531640625Q17.2534734375,79.655831640625,17.727473437500002,79.909131640625Q18.2013734375,80.162531640625,18.6871734375,80.392231640625Q19.1730734375,80.622031640625,19.6695734375,80.827731640625Q20.1660734375,81.033331640625,20.6720734375,81.214431640625Q21.1780734375,81.395431640625,21.692373437500002,81.551431640625Q22.2065734375,81.707431640625,22.7279734375,81.838031640625Q23.2492734375,81.968631640625,23.7763734375,82.073531640625Q24.3033734375,82.178331640625,24.8349734375,82.257231640625Q25.3665734375,82.336031640625,25.9014734375,82.388731640625Q26.4362734375,82.441431640625,26.9730734375,82.467731640625Q27.5098734375,82.494131640625,28.0472734375,82.494131640625Q28.5846734375,82.494131640625,29.1214734375,82.467731640625Q29.6581734375,82.441431640625,30.1930734375,82.388731640625Q30.7278734375,82.336031640625,31.2594734375,82.257231640625Q31.7910734375,82.178331640625,32.3181734375,82.073431640625Q32.8452734375,81.968631640625,33.3665734375,81.838031640625Q33.887873437500005,81.707431640625,34.4021734375,81.551431640625Q34.9163734375,81.395431640625,35.4223734375,81.214431640625Q35.9283734375,81.033331640625,36.4249734375,80.827731640625Q36.9214734375,80.622031640625,37.407273437499995,80.392231640625Q37.8930734375,80.162531640625,38.3670734375,79.909131640625Q38.8409734375,79.655831640625,39.3019734375,79.379531640625Q39.7628734375,79.103231640625,40.2097734375,78.804631640625Q40.6565734375,78.506131640625,41.0882734375,78.185931640625Q41.5199734375,77.865831640625,41.9353734375,77.524931640625Q42.3507734375,77.18393164062499,42.7489734375,76.823031640625Q43.1471734375,76.462131640625,43.5271734375,76.082131640625Q43.9071734375,75.702131640625,44.2680734375,75.303931640625Q44.6289734375,74.90573164062499,44.9699734375,74.490331640625Q45.3108734375,74.074831640625,45.6310734375,73.643231640625Q45.9511734375,73.211531640625,46.2497734375,72.764731640625Q46.5482734375,72.317831640625,46.8245734375,71.85693164062499Q47.1008734375,71.39593164062501,47.3542734375,70.92193164062499Q47.6075734375,70.448031640625,47.8373734375,69.96223164062499Q48.0670734375,69.476331640625,48.2727734375,68.97983164062501Q48.4784734375,68.48333164062501,48.6594734375,67.97733164062501Q48.8405734375,67.47133164062501,48.9965734375,66.95703164062499Q49.1525734375,66.442831640625,49.2831734375,65.921531640625Q49.4136734375,65.400131640625,49.5185734375,64.873031640625Q49.6233734375,64.346031640625,49.7022734375,63.814431640625Q49.7810734375,63.282831640625,49.8337734375,62.747931640625Q49.8864734375,62.213131640625,49.9128734375,61.676331640625Q49.9391734375,61.139631640625,49.9391734375,60.602131640625Q49.9391734375,59.858131640625,49.8886734375,59.115731640625L47.1644734375,59.115731640625L30.4264734375,32.744631640625L55.9999734375,32.744631640625ZM107.0342734375,59.115731640625L92.3305734375,35.948931640625L77.6259734375,59.115731640625L107.0342734375,59.115731640625ZM42.4267734375,59.115731640625L27.7226734375,35.948931640625L13.0181134375,59.115731640625L42.4267734375,59.115731640625Z" fill-rule="evenodd" fill="url(#master_svg0_1_0004)" fill-opacity="1"/></g></g></svg>