<svg xmlns="http://www.w3.org/2000/svg" xmlns:xlink="http://www.w3.org/1999/xlink" fill="none" version="1.1" width="40" height="40" viewBox="0 0 40 40"><defs><linearGradient x1="0.5" y1="0.9978885054588318" x2="0.5" y2="-1.955777406692505e-8" id="master_svg0_1_01538"><stop offset="0%" stop-color="#FF9F4D" stop-opacity="1"/><stop offset="100%" stop-color="#F14146" stop-opacity="1"/></linearGradient><mask id="master_svg1_119_2124"><g style="mix-blend-mode:passthrough"><ellipse cx="20" cy="20" rx="20" ry="20" fill="#FFFFFF" fill-opacity="1"/></g></mask><linearGradient x1="0.5" y1="1" x2="0.5" y2="0" id="master_svg2_1_01528"><stop offset="0%" stop-color="#FFF5EE" stop-opacity="1"/><stop offset="100%" stop-color="#FFFFFF" stop-opacity="1"/></linearGradient><linearGradient x1="1" y1="0.7511475086212158" x2="0" y2="0.1802627146244049" id="master_svg3_1_01530"><stop offset="5.000002682209015%" stop-color="#FFD574" stop-opacity="1"/><stop offset="97.8571891784668%" stop-color="#FFDC97" stop-opacity="1"/></linearGradient><filter id="master_svg4_119_2128" filterUnits="objectBoundingBox" color-interpolation-filters="sRGB" x="-20" y="-16" width="50.07619094848633" height="60.8292236328125"><feFlood flood-opacity="0" result="BackgroundImageFix"/><feColorMatrix in="SourceAlpha" type="matrix" values="0 0 0 0 0 0 0 0 0 0 0 0 0 0 0 0 0 0 127 0"/><feOffset dy="4" dx="0"/><feGaussianBlur stdDeviation="5"/><feColorMatrix type="matrix" values="0 0 0 0 0 0 0 0 0 0 0 0 0 0 0 0 0 0 0.3019607961177826 0"/><feBlend mode="normal" in2="BackgroundImageFix" result="effect1_dropShadow"/><feBlend mode="normal" in="SourceGraphic" in2="effect1_dropShadow" result="shape"/></filter><linearGradient x1="0.5" y1="0" x2="0.5" y2="0.9795801043510437" id="master_svg5_1_01545"><stop offset="0%" stop-color="#FFCC99" stop-opacity="1"/><stop offset="100%" stop-color="#FF5C10" stop-opacity="1"/></linearGradient><linearGradient x1="1" y1="0.5" x2="0" y2="0.5" id="master_svg6_119_1544"><stop offset="0%" stop-color="#D9BA6C" stop-opacity="1"/><stop offset="100%" stop-color="#D9BA6C" stop-opacity="1"/></linearGradient></defs><g style="mix-blend-mode:passthrough"><g style="mix-blend-mode:passthrough"><g style="mix-blend-mode:passthrough" mask="url(#master_svg1_119_2124)"><g style="mix-blend-mode:passthrough"><ellipse cx="20" cy="20" rx="20" ry="20" fill="url(#master_svg0_1_01538)" fill-opacity="1"/></g><g style="mix-blend-mode:passthrough"><g><path d="M31.1835603515625,10.879641953124999C31.1835603515625,10.341731953124999,30.8249603515625,9.803821953125,30.2870603515625,9.803821953125L29.2112603515625,9.803821953125Q26.8802603515625,9.803821953125,24.5493603515625,8.727991953125Q22.039060351562497,8.010771953125,20.4253603515625,6.755643953125L19.708160351562498,6.217729953125C19.349560351562502,6.038425853125,18.8115603515625,6.038425853125,18.4529603515625,6.217729953125L17.915060351562502,6.755643953125Q16.301350351562498,7.831471953125,13.7911003515625,8.907301953125C11.4601503515625,9.803821953125,9.3085003515625,9.983121953125,9.129200351562499,9.983121953125L8.0533793515625,9.983121953125C7.5154683515625,9.983121953125,7.1568603515625,10.521041953125,7.1568603515625,11.058951953125L7.1568603515625,21.996551953125C7.1568603515625,24.865351953125,8.7705903515625,27.913551953125,11.4601503515625,30.603151953125C13.9704003515625,33.113351953125004,17.0185603515625,34.547851953125004,19.1701603515625,34.547851953125004C21.3218603515625,34.547851953125004,24.3700603515625,33.113351953125004,26.8802603515625,30.603151953125C29.7491603515625,27.913551953125,31.1835603515625,24.865351953125,31.1835603515625,21.996551953125L31.1835603515625,10.879641953124999Z" fill="url(#master_svg2_1_01528)" fill-opacity="1"/><path d="M26.8802603515625,30.603151953125C24.3700603515625,33.113351953125004,21.3218603515625,34.547851953125004,19.1701603515625,34.547851953125004C17.0185603515625,34.547851953125004,13.9704003515625,33.113351953125004,11.4601503515625,30.603151953125C8.7705903515625,27.913551953125,7.1568603515625,24.865351953125,7.1568603515625,21.996551953125L7.1568603515625,11.058951953125C7.1568603515625,10.521041953125,7.5154683515625,9.983121953125,8.0533793515625,9.983121953125L9.129200351562499,9.983121953125C9.3085003515625,9.983121953125,11.4601503515625,9.803821953125,13.7911003515625,8.907301953125Q16.301350351562498,7.831471953125,17.915060351562502,6.755643953125L18.4529603515625,6.217729953125C18.8115603515625,6.038425853125,19.349560351562502,6.038425853125,19.708160351562498,6.217729953125L20.4253603515625,6.755643953125Q22.039060351562497,8.010771953125,24.5493603515625,8.727991953125Q26.8802603515625,9.803821953125,29.2112603515625,9.803821953125L30.2870603515625,9.803821953125C30.8249603515625,9.803821953125,31.1835603515625,10.341731953124999,31.1835603515625,10.879641953124999L31.1835603515625,21.996551953125C31.1835603515625,24.865351953125,29.7491603515625,27.913551953125,26.8802603515625,30.603151953125ZM23.8527603515625,10.608391953125Q21.0678603515625,9.789111953125,19.197460351562498,8.334341953125L19.1763603515625,8.318511953125L19.0244603515625,8.419741953125Q17.257960351562502,9.597421953125,14.578940351562501,10.745581953125L14.5442703515625,10.760441953125L14.5090603515625,10.773991953125Q12.8584503515625,11.408841953125,11.0156103515625,11.748311953125Q9.7693903515625,11.977881953125,9.1568603515625,11.983011953125L9.1568603515625,21.996551953125Q9.1568603515625,23.636951953125,10.083260351562501,25.461651953125Q11.0486203515625,27.363151953125,12.8743703515625,29.188951953125Q14.4827403515625,30.797351953125,16.3440903515625,31.727951953125Q17.983760351562502,32.547851953125004,19.1701603515625,32.547851953125004Q20.3566603515625,32.547851953125004,21.9963603515625,31.727951953125Q23.8576603515625,30.797351953125,25.4660603515625,29.188951953125L25.4888603515625,29.166151953125L25.5123603515625,29.144051953125Q27.3676603515625,27.404751953125,28.3133603515625,25.483751953125Q29.1835603515625,23.716151953125,29.1835603515625,21.996551953125L29.1835603515625,11.803791953125Q26.4991603515625,11.797691953125,23.8527603515625,10.608391953125Z" fill-rule="evenodd" fill="url(#master_svg3_1_01530)" fill-opacity="1"/></g><g style="mix-blend-mode:passthrough" transform="matrix(-1,0,0,1,58.492919921875,0)" filter="url(#master_svg4_119_2128)"><path d="M29.2464599609375,11.9929175390625Q29.2464599609375,21.4030275390625,29.6130569609375,24.3481275390625Q29.9796539609375,27.2932275390625,31.8214299609375,28.6999275390625L39.3226599609375,28.6999275390625L39.3226599609375,7.8707275390625Q36.6509599609375,10.0921675390625,33.7756499609375,11.0921675390625Q30.9003499609375,12.092167539062501,29.2464599609375,11.9929175390625Z" fill="#FFF1D9" fill-opacity="1"/></g></g><g style="mix-blend-mode:passthrough"><g style="mix-blend-mode:passthrough"><path d="M6.832405952301025,31.103769790527345L5.3457709523010255,32.77931279052734L5.212486952301026,33.563432790527344L5.991685952301025,33.563432790527344L5.048443952301025,34.496122790527345L4.915159952301026,35.280242790527346L8.226765952301026,35.280242790527346L8.360055952301025,34.496122790527345L7.047715952301026,34.496122790527345L8.677885952301025,32.77931279052734L7.201505952301025,32.77931279052734L8.862435952301025,30.897422790527344L6.5658359523010255,30.897422790527344L6.832405952301025,31.103769790527345ZM10.061925952301024,35.816752790527346L10.718095952301026,32.06949279052734L9.333985952301026,32.06949279052734L9.487775952301025,31.211082790527342L13.968185952301026,31.211082790527342L13.814395952301025,32.06949279052734L12.461045952301024,32.06949279052734L11.804875952301025,35.816752790527346L13.353025952301026,35.816752790527346L13.199235952301025,36.69167279052734L8.349725952301025,36.69167279052734L8.503515952301026,35.816752790527346L10.061925952301024,35.816752790527346ZM7.990925952301025,36.543112790527346L4.669065952301025,36.699942790527345L4.802350952301025,35.91582279052734L8.134465952301024,35.758992790527344L7.990925952301025,36.543112790527346Z" fill-rule="evenodd" fill="#8F280A" fill-opacity="1"/></g><g style="mix-blend-mode:passthrough"><path d="M23.05207146713257,31.367894790527345L17.597661467132568,31.367894790527345L17.87448146713257,30.897422790527344L15.731681467132569,30.897422790527344L15.977741467132569,31.136785790527345L14.460351467132568,33.72025279052735L15.62915146713257,33.72025279052735L15.116521467132568,36.69991279052734L22.51894146713257,36.69991279052734L22.73424146713257,35.44532279052734L22.29338146713257,35.758972790527345L16.83897146713257,35.758972790527345L17.00301146713257,34.818022790527344L20.119821467132567,34.818022790527344L20.499161467132566,32.62248279052734L16.85947146713257,32.62248279052734L17.13629146713257,32.152012790527344L21.16559146713257,32.152012790527344L20.683711467132568,34.900562790527346L20.242851467132567,35.20595279052734L21.68847146713257,35.20595279052734Q21.985801467132568,35.20595279052734,22.21136146713257,35.04500279052734C22.361731467132568,34.93770279052735,22.454001467132567,34.804262790527346,22.48818146713257,34.644692790527344L23.05207146713257,31.367894790527345ZM17.13638146713257,34.03388279052734L17.238901467132568,33.406582790527345L18.80756146713257,33.406582790527345L18.694781467132568,34.03388279052734L17.13638146713257,34.03388279052734Z" fill-rule="evenodd" fill="#8F280A" fill-opacity="1"/></g><g style="mix-blend-mode:passthrough"><path d="M29.04988280166626,33.10121684286118L30.68005280166626,33.10121684286118L30.03413280166626,36.81546684286118L31.479752801666258,36.81546684286118L32.26921280166626,32.30058684286118L29.30619280166626,32.30058684286118L29.37796280166626,31.854874842861175L32.52553280166626,31.854874842861175L32.66906280166626,31.054246842861176L24.48744680166626,31.054246842861176L24.34390980166626,31.854874842861175L27.52223280166626,31.854874842861175L27.45046280166626,32.30058684286118L24.48744680166626,32.30058684286118L23.69799280166626,36.81546684286118L25.143612801666258,36.81546684286118L25.78953280166626,33.10121684286118L27.41970280166626,33.10121684286118L26.77379280166626,36.81546684286118L28.40396280166626,36.81546684286118L29.04988280166626,33.10121684286118ZM26.88658280166626,34.57037684286117L27.08138280166626,33.456106842861175L26.03561280166626,33.456106842861175L25.84081280166626,34.57037684286117L26.88658280166626,34.57037684286117ZM30.11608280166626,34.57037684286117L30.31088280166626,33.456106842861175L29.26510280166626,33.456106842861175L29.07030280166626,34.57037684286117L30.11608280166626,34.57037684286117ZM26.64049280166626,36.00659684286118L26.83529280166626,34.89231684286118L25.78952280166626,34.89231684286118L25.59472280166626,36.00659684286118L26.64049280166626,36.00659684286118ZM29.86998280166626,36.00659684286118L30.06478280166626,34.89231684286118L29.01901280166626,34.89231684286118L28.82421280166626,36.00659684286118L29.86998280166626,36.00659684286118Z" fill-rule="evenodd" fill="#8F280A" fill-opacity="1"/></g></g></g><g style="mix-blend-mode:passthrough"><g style="mix-blend-mode:passthrough"><path d="M6,28L34,28C37.3137,28,40,30.68629,40,34C40,37.31371,37.3137,40,34,40L6,40C2.68629,40,-9.66172e-13,37.31371,-9.66172e-13,34C-9.66172e-13,30.68629,2.68629,28,6,28" fill-rule="evenodd" fill="url(#master_svg5_1_01545)" fill-opacity="1"/><path d="M2.11091,30.11091Q3.72182,28.5,6,28.5L34,28.5Q36.2782,28.5,37.8891,30.11091Q39.5,31.72182,39.5,34Q39.5,36.27817,37.8891,37.889089999999996Q36.2782,39.5,34,39.5L6,39.5Q3.72182,39.5,2.11091,37.889089999999996Q0.5,36.27817,0.5,34Q0.5,31.72182,2.11091,30.11091ZM34,28L6,28C2.68629,28,0,30.68629,0,34C0,37.31371,2.68629,40,6,40L34,40C37.3137,40,40,37.31371,40,34C40,30.68629,37.3137,28,34,28Z" fill-rule="evenodd" fill="#F4A800" fill-opacity="1"/></g><g style="mix-blend-mode:passthrough"><path d="M11.28418,37.11426L9.142579999999999,37.11426L9.277339999999999,36.15918L7.88281,36.15918L7.57812,35.01953L6.96582,36.18555L5.55078,36.18555L7.03613,33.98828L6.17188,32.3125L5.2373,37.11426L3.795898,37.11426L4.95898,31.14648L4.67773,30.8125L11.4834,30.8125L10.71875,36.25L11.058589999999999,36.25L11.45703,35.90723L11.28418,37.11426ZM9.277339999999999,36.15039L9.82812,32.21289L8.37793,33.9707L9.277339999999999,36.15039ZM9.83691,32.14258L9.90723,31.67676L6.29785,31.67676L6.209960000000001,32.14258L7.50488,32.14258L7.84766,33.00391L8.486329999999999,32.14258L9.83691,32.14258ZM13.7803,31.69434L13.02441,37.04102L11.84668,37.04102L12.72852,30.8125L15.3477,30.8125L15.2217,31.67676L14.835,33.01562L15.1396,33.01562L15.0957,33.80957L14.6006,36.0625L13.34961,36.0625L13.45801,35.31836L13.7275,35.31836L14.0527,33.80957L13.6543,33.80957L13.7627,33.03613L14.1494,31.69434L13.7803,31.69434ZM18.6318,33.37891L18.4971,32.93945L18.4414,33.44629L16.6104,33.44629L16.707,32.77832L16.4346,33.37891L15.1953,33.37891L16.6631,30.86816L16.4727,30.65137L18.9453,30.65137L19.8359,33.37891L18.6318,33.37891ZM19.5752,33.70703L18.710900000000002,36.0625L19.2793,36.0625L19.162100000000002,36.88867L14.7441,36.88867L14.8613,36.0625L17.624000000000002,36.0625L18.4854,33.70703L19.5752,33.70703ZM17.7031,33.70703L17.6035,35.875L16.5781,35.875L16.6777,33.70703L17.7031,33.70703ZM16.3906,33.70703L16.2939,35.875L15.2656,35.875L15.3652,33.70703L16.3906,33.70703ZM16.7686,32.64355L18.4062,32.64355L18.0547,31.58594L17.3457,31.58594L16.7686,32.64355ZM24.3418,34.75293L24.7725,31.5625L23.5127,31.5625L23.0527,34.62695L22.6484,35.23633L21.9746,35.23633L22.6133,30.80664L25.8359,30.80664L25.2236,35.20996L24.585,35.20996L24.3418,34.75293ZM28.3379,30.75391L27.5352,36.41699Q27.5,36.66602,27.3008,36.83887Q27.1045,37.01172,26.8525,37.01172L25.6016,37.01172L26.3838,36.17676L27.1221,31.00293L26.8965,30.75391L28.3379,30.75391ZM24.5117,31.9375L24.125,34.67383L25.1885,37.01172L23.9375,37.01172L23.5596,35.89551L22.9561,37.01172L21.667,37.01172L23.2344,34.61816L23.6475,31.9375L24.5117,31.9375ZM26.8701,31.14941L26.249,35.52637L25.4023,35.52637L26.0234,31.14941L26.8701,31.14941ZM19.9414,37.01172L20.6885,34.52441L21.8838,34.52441L21.1455,37.01172L19.9414,37.01172ZM20.7764,34.17871L20.7324,32.62012L21.9102,32.62012L21.957,34.17871L20.7764,34.17871ZM21.0459,32.27441L21.002,30.79785L22.1797,30.79785L22.2266,32.27441L21.0459,32.27441ZM36.21,30.8125L36.0928,31.66797L34.5195,31.66797L34.185500000000005,34L35.9844,34L35.8672,34.87305L34.0684,34.87305L33.751999999999995,37.10547L32.1055,37.10547L32.4219,34.87305L30.6846,34.87305L30.8018,34L32.539100000000005,34L32.8701,31.66797L31.3496,31.66797L31.4668,30.8125L36.21,30.8125ZM28.4609,37.1084L29.0088,33.23828L28.5781,33.23828L28.6953,32.38281L30.6494,32.38281L30.1455,35.94531L30.7754,35.81934L30.6582,36.68359L28.4609,37.1084ZM34.824200000000005,32.11328L35.9932,32.11328L35.624,33.625L34.463899999999995,33.625L34.824200000000005,32.11328ZM32.4131,33.625L31.2793,33.625L31.2324,32.11328L32.375,32.11328L32.4131,33.625ZM30.4766,30.8125L30.7197,32.03711L29.3896,32.03711L29.1465,30.8125L30.4766,30.8125Z" fill="#FFFFFF" fill-opacity="1"/><path d="M18.048299999999998,33.44629L18.4414,33.44629L18.4677,33.20703L18.4747,33.14355L18.4971,32.93945L18.5597,33.14355L18.5791,33.20703L18.6318,33.37891L19.8359,33.37891L19.7798,33.20703L19.6727,32.87891L18.9453,30.65137L16.4727,30.65137L16.6631,30.86816L16.497500000000002,31.15137L15.6648,32.57589L15.4876,32.87891L15.2958,33.20703L15.1953,33.37891L16.4346,33.37891L16.5125,33.20703L16.5413,33.14355L16.6104,32.99143L16.6308,32.94629L16.707,32.77832L16.6827,32.94629L16.6542,33.14355L16.645,33.20703L16.6104,33.44629L18.048299999999998,33.44629ZM17.3382,32.64355L18.4062,32.64355L18.240000000000002,32.14355L18.0547,31.58594L17.3457,31.58594L17.0414,32.14355L16.7686,32.64355L17.3382,32.64355ZM17.611,32.14355L17.7131,32.14355L17.694000000000003,32.08594L17.6425,32.08594L17.611,32.14355ZM15.7654,31.41299L16.0494,30.92717L15.8666,30.719L15.7654,31.41299ZM15.5095,30.3125L12.29432,30.3125L11.52529,35.74428L11.31128,35.62701L12.05863,30.3125L3.603011,30.3125L4.422464,31.2856L3.189044,37.61426L5.649369999999999,37.61426L5.8301300000000005,36.68555L7.268,36.68555L7.4256899999999995,36.38526L7.49893,36.65918L8.70184,36.65918L8.567070000000001,37.61426L11.71768,37.61426L11.72817,37.54102L13.4587,37.54102L13.597,36.5625L14.2854,36.5625L14.1682,37.38867L19.3061,37.38867L19.269199999999998,37.51172L23.2541,37.51172L23.4538,37.14233L23.5789,37.51172L26.8525,37.51172Q27.2933,37.51172,27.6285,37.21653Q27.9689,36.921099999999996,28.0302,36.48717L28.4199,33.73828L28.433,33.73828L27.9659,37.03832L27.8676,37.73236L31.1055,37.10638L31.3405,35.37305L31.846,35.37305L31.5296,37.60547L34.186099999999996,37.60547L34.5025,35.37305L36.3046,35.37305L36.556,33.5L36.1692,33.5L36.4945,32.16797L36.5289,32.16797L36.573,31.84662L36.6299,31.61328L36.6049,31.61328L36.7053,30.88036L36.7831,30.3125L31.0306,30.3125L30.972,30.74039L30.967,30.71512L30.887,30.3125L28.9055,30.3125L28.9138,30.25391L25.7689,30.25391L25.8167,30.30664L22.6643,30.30664L22.6641,30.29785L20.4869,30.29785L20.5411,32.12012L20.2181,32.12012L20.2434,33.01589L19.308,30.15137L15.368,30.15137L15.5095,30.3125ZM20.0447,33.87891L20.2677,33.87891L20.2757,34.16068L19.8546,35.5625L19.427,35.5625L20.0446,33.87926L20.0447,33.87891ZM19.0426,33.70703L19.5752,33.70703L19.5121,33.87891L19.3917,34.20703L18.894399999999997,35.5625L18.710900000000002,36.0625L19.2793,36.0625L19.208399999999997,36.5625L19.162100000000002,36.88867L14.7441,36.88867L14.7904,36.5625L14.8151,36.38867L14.817,36.375L14.8613,36.0625L17.624000000000002,36.0625L18.1632,34.5881L18.3979,33.94629L18.4225,33.87891L18.4854,33.70703L19.0426,33.70703ZM17.1602,35.875L17.6035,35.875L17.6179,35.5625L17.6672,34.48847L17.6802,34.20703L17.6921,33.94629L17.7031,33.70703L16.6777,33.70703L16.669800000000002,33.87891L16.6667,33.94629L16.601100000000002,35.375L16.5925,35.5625L16.5781,35.875L17.1602,35.875ZM16.3079,35.5625L16.368299999999998,34.20703L16.380000000000003,33.94629L16.383,33.87891L16.3906,33.70703L15.3652,33.70703L15.3573,33.87891L15.2952,35.23123L15.2886,35.375L15.28,35.5625L15.2656,35.875L16.2939,35.875L16.3079,35.5625ZM14.7977,35.16561L15.0805,33.87891L15.0957,33.80957L15.112,33.51562L15.1291,33.20703L15.1349,33.10225L15.1396,33.01562L14.835,33.01562L14.8398,32.99903L14.8413,32.99383L14.9794,32.51562L15.2217,31.67676L15.2748,31.3125L15.3477,30.8125L12.72852,30.8125L11.91747,36.54102L11.84668,37.04102L13.02441,37.04102L13.09206,36.5625L13.28154,35.222229999999996L13.33863,34.81836L13.36685,34.61871L13.41056,34.30957L13.7803,31.69434L14.1494,31.69434L14.135,31.74448L14.0053,32.19434L13.7627,33.03613L13.7244,33.30957L13.666,33.72621L13.6543,33.80957L14.0527,33.80957L14.0411,33.86377L13.945,34.30957L13.8594,34.70649L13.7275,35.31836L13.45801,35.31836L13.42244,35.5625L13.34961,36.0625L14.6006,36.0625L14.7105,35.5625L14.7977,35.16561ZM20.772,34.02441L20.7764,34.17871L21.957,34.17871L21.9524,34.02441L21.942,33.67871L21.9148,32.77441L21.9102,32.62012L20.7324,32.62012L20.7368,32.77441L20.7465,33.12012L20.772,34.02441ZM22.4003,32.28402L22.3296,32.77441L22.1493,34.02441L22.055,34.67871L22.0467,34.73633L21.9746,35.23633L22.6484,35.23633L23.0527,34.62695L23.0581,34.591L23.0702,34.51065L23.5127,31.5625L24.7725,31.5625L24.705,32.0625L24.3674,34.56358L24.3482,34.70537L24.3418,34.75293L24.585,35.20996L25.2236,35.20996L25.7664,31.30664L25.8359,30.80664L22.6133,30.80664L22.4003,32.28402ZM26.2931,31.14941L26.0234,31.14941L25.4733,35.02637L25.4023,35.52637L26.249,35.52637L26.7992,31.64941L26.8568,31.24323L26.8701,31.14941L26.2931,31.14941ZM27.1221,31.00293L27.0863,31.25391L26.4052,36.02637L26.3838,36.17676L26.07,36.51172L25.6933,36.91385L25.6016,37.01172L26.8525,37.01172Q27.1045,37.01172,27.3008,36.83887Q27.5,36.66602,27.5352,36.41699L28.267,31.25391L28.3379,30.75391L26.8965,30.75391L27.1221,31.00293ZM25.4693,36.421549999999996L25.8395,36.02637L25.2896,36.02637L25.4693,36.421549999999996ZM24.5963,35.70996L24.125,34.67383L24.4411,32.4375L24.5117,31.9375L23.6475,31.9375L23.6282,32.0625L23.2344,34.61816L22.5022,35.73633L21.9944,36.51172L21.6671,37.01151L21.667,37.01172L22.9561,37.01172L23.235,36.49588L23.5596,35.89551L23.7784,36.54196L23.9375,37.01172L25.1885,37.01172L25.0996,36.81624L24.961,36.51172L24.5963,35.70996ZM21.5241,35.73633L21.7354,35.02441L21.838,34.67871L21.8838,34.52441L20.6885,34.52441L20.6421,34.67871L20.0916,36.51172L19.9414,37.01172L21.1455,37.01172L21.2087,36.79894L21.5241,35.73633ZM22.2217,32.12012L22.2266,32.27441L21.0459,32.27441L21.0413,32.12012L21.0168,31.29785L21.002,30.79785L22.1797,30.79785L22.2107,31.77441L22.2217,32.12012ZM28.7522,31.3939L28.6829,31.88281L28.8492,31.88281L28.7522,31.3939ZM29.359,31.88281L29.3896,32.03711L30.7197,32.03711L30.6891,31.88281L30.6204,31.53711L30.4766,30.8125L29.1465,30.8125L29.2458,31.3125L29.359,31.88281ZM30.1444,32.38281L30.6494,32.38281L30.6276,32.53711L30.5787,32.88281L30.4914,33.5L30.2265,35.37305L30.2197,35.42057L30.1455,35.94531L30.2568,35.92306L30.6652,35.84138L30.7754,35.81934L30.7043,36.343450000000004L30.6582,36.68359L28.9801,37.00802L28.4609,37.1084L28.5351,36.58481L28.938,33.73828L29.0006,33.29615L29.0088,33.23828L28.5781,33.23828L28.5863,33.17848L28.6466,32.73828L28.6953,32.38281L30.1444,32.38281ZM31.1891,34.87305L32.4219,34.87305L32.351,35.37305L32.1763,36.60547L32.1055,37.10547L33.751999999999995,37.10547L34.0684,34.87305L35.8672,34.87305L35.9173,34.5L35.9676,34.125L35.9844,34L34.185500000000005,34L34.2572,33.5L34.5195,31.66797L36.0928,31.66797L36.1003,31.61328L36.1415,31.3125L36.21,30.8125L31.4668,30.8125L31.4181,31.16797L31.3571,31.61328L31.3496,31.66797L32.8701,31.66797L32.8649,31.70492L32.799099999999996,32.16797L32.539100000000005,34L30.8018,34L30.7928,34.067009999999996L30.7517,34.37305L30.6846,34.87305L31.1891,34.87305ZM31.2754,33.5L31.2793,33.625L32.4131,33.625L32.4005,33.125L32.376400000000004,32.16797L32.375,32.11328L31.2324,32.11328L31.2341,32.16797L31.2456,32.53711L31.2479,32.61328L31.2754,33.5ZM34.960899999999995,32.11328L34.824200000000005,32.11328L34.8112,32.16797L34.5831,33.125L34.463899999999995,33.625L35.624,33.625L35.6545,33.5L35.8711,32.61328L35.9798,32.16797L35.9932,32.11328L34.960899999999995,32.11328ZM10.78906,35.75L11.4834,30.8125L4.67773,30.8125L4.95898,31.14648L4.92663,31.3125L3.893346,36.61426L3.795898,37.11426L5.2373,37.11426L5.32075,36.68555L5.608420000000001,35.20749L6.01774,33.10446L6.10763,32.64258L6.17188,32.3125L6.34211,32.64258L6.54169,33.02957L7.03613,33.98828L6.07974,35.40307L5.55078,36.18555L6.96582,36.18555L7.23517,35.67262L7.57812,35.01953L7.76865,35.732169999999996L7.88281,36.15918L9.277339999999999,36.15918L9.25963,36.28472L9.21313,36.61426L9.20679,36.65918L9.142579999999999,37.11426L11.28418,37.11426L11.34931,36.65947L11.45703,35.90723L11.24639,36.08844L11.058589999999999,36.25L10.71875,36.25L10.7665,35.910470000000004L10.77749,35.83226L10.78906,35.75ZM9.22018,32.949799999999996L8.37793,33.9707L8.90029,35.23663L9.07465,35.65918L9.277339999999999,36.15039L9.34606,35.65918L9.41428,35.17142L9.69578,33.159L9.76802,32.64258L9.82812,32.21289L9.47363,32.64258L9.22018,32.949799999999996ZM8.20927,31.67676L6.29785,31.67676L6.21019,32.14135L6.209960000000001,32.14258L7.50488,32.14258L7.51849,32.17676L7.63026,32.45763L7.84766,33.00391L8.197849999999999,32.53163L8.46098,32.17676L8.486329999999999,32.14258L9.83691,32.14258L9.847439999999999,32.07284L9.90723,31.67676L8.20927,31.67676ZM9.037230000000001,34.25766L9.08784,33.8959L8.9546,34.0574L9.037230000000001,34.25766ZM6.32376,34.1493L6.455830000000001,33.95392L6.38755,33.82153L6.32376,34.1493Z" fill-rule="evenodd" fill="#FF7B00" fill-opacity="1"/></g></g></g><g style="mix-blend-mode:passthrough"><path d="M27.7693029296875,15.8703523828125L17.9672829296875,25.6722923828125L12.0173529296875,19.7225423828125L14.1386529296875,17.6011923828125L19.0279229296875,22.4903523828125L17.9672729296875,23.551022382812498L16.9066129296875,22.4903623828125L25.6480029296875,13.7490323828125L27.7693029296875,15.8703523828125Z" fill="url(#master_svg6_119_1544)" fill-opacity="1"/></g></g></svg>