<svg xmlns="http://www.w3.org/2000/svg" xmlns:xlink="http://www.w3.org/1999/xlink" fill="none" version="1.1" width="120" height="120.557861328125" viewBox="0 0 120 120.557861328125"><defs><linearGradient x1="0.5" y1="0" x2="0.5" y2="1" id="master_svg0_1_0004"><stop offset="0%" stop-color="#FFEBBC" stop-opacity="1"/><stop offset="98.57142567634583%" stop-color="#FFEBBC" stop-opacity="0.4000000059604645"/></linearGradient></defs><g style="mix-blend-mode:passthrough"><g style="mix-blend-mode:passthrough"></g><g style="mix-blend-mode:passthrough"><g style="mix-blend-mode:passthrough" transform="matrix(0.9394364356994629,0.34272336959838867,-0.3360316753387451,0.9418506622314453,2.146747697965843,-12.148122418545816)"><g style="mix-blend-mode:passthrough"><path d="M85.04206235284806,11.336343369393097C84.28556235284805,10.987743369393097,84.27456235284805,9.904503369393098,85.02386235284806,9.523653369393097L103.54506235284805,0.10879636939309724C104.12316235284806,-0.18507163060690277,104.81496235284806,0.14259836939309722,104.95496235284806,0.7766023693930972L109.36816235284806,20.757543369393098C109.54756235284805,21.569743369393098,108.72436235284805,22.246943369393097,107.97656235284805,21.902443369393097L100.90506235284805,18.644543369393098Q80.67156235284806,38.7198433693931,68.49736235284806,46.9194433693931Q49.65196235284805,59.0876433693931,36.417687352848056,60.9418433693931C35.36248265284805,61.089643369393094,35.07141135284805,59.7730433693931,36.02180635284805,59.2822433693931Q52.15236235284805,50.9517433693931,65.79036235284805,39.8847433693931Q79.39796235284805,28.842243369393096,90.00416235284806,13.622343369393096L85.04206235284806,11.336343369393097Z" fill-rule="evenodd" fill="#FFEBBC" fill-opacity="1"/></g></g></g><g style="mix-blend-mode:passthrough"><path d="M85.369006640625,104.580521875C85.369006640625,105.13282187499999,85.816706640625,105.580521875,86.369006640625,105.580521875L101.067206640625,105.580521875C101.619406640625,105.580521875,102.067206640625,105.13282187499999,102.067206640625,104.580521875L102.067206640625,54.607421875C102.067206640625,54.055136875,101.619406640625,53.607421875,101.067206640625,53.607421875L86.369006640625,53.607421875C85.816706640625,53.607421875,85.369006640625,54.055136875,85.369006640625,54.607421875L85.369006640625,104.580521875ZM55.704306640625,104.580721875C55.704306640625,105.132921875,56.152106640625,105.580721875,56.704306640625,105.580721875L71.402506640625,105.580721875C71.95480664062501,105.580721875,72.402506640625,105.132921875,72.402506640625,104.580721875L72.402506640625,64.386921875C72.402506640625,63.834721875,71.95480664062501,63.386961875,71.402506640625,63.386961875L56.704306640625,63.386961875C56.152106640625,63.386961875,55.704306640625,63.834721875,55.704306640625,64.386921875L55.704306640625,104.580721875ZM27.039306640625,105.58062187499999C26.487021640625,105.58062187499999,26.039306640625,105.13282187499999,26.039306640625,104.58062187499999L26.039306640625,74.166221875C26.039306640625,73.61402187499999,26.487021640625,73.166221875,27.039306640625,73.166221875L41.737406640625,73.166221875C42.289706640625,73.166221875,42.737406640625,73.61402187499999,42.737406640625,74.166221875L42.737406640625,104.58062187499999C42.737406640625,105.13282187499999,42.289706640625,105.58062187499999,41.737406640625,105.58062187499999L27.039306640625,105.58062187499999Z" fill-rule="evenodd" fill="url(#master_svg0_1_0004)" fill-opacity="1"/></g></g></svg>